<?xml version="1.0" encoding="UTF-8"?>
<svg id="_레이어_2" data-name="레이어 2" xmlns="http://www.w3.org/2000/svg" xmlns:xlink="http://www.w3.org/1999/xlink" viewBox="0 0 368.91 71.98">
  <defs>
    <style>
      .cls-1 {
        fill: #fcff28;
        stroke: #231815;
        stroke-miterlimit: 10;
        stroke-width: 2px;
      }

      .cls-2 {
        filter: url(#drop-shadow-1);
      }
    </style>
    <filter id="drop-shadow-1" filterUnits="userSpaceOnUse">
      <feOffset dx="2.83" dy="5.67"/>
      <feGaussianBlur result="blur" stdDeviation="0"/>
      <feFlood flood-color="#000" flood-opacity="1"/>
      <feComposite in2="blur" operator="in"/>
      <feComposite in="SourceGraphic"/>
    </filter>
  </defs>
  <g id="_레이어_1-2" data-name="레이어 1">
    <g class="cls-2">
      <path class="cls-1" d="m46.6,49.19c4.42,1.44,8.06,4.51,8.06,10.08,0,11.04-12.67,11.33-20.25,11.42-5.18.1-10.08.29-15.36.29-3.07,0-6.14-.1-9.6-.29-3.74-.1-4.61-2.11-4.7-5.47-.38-15.74-2.3-41.28-3.74-55.39,0-3.46.58-4.9,1.25-5.38C5.13,2.25,11.27,1.48,21.73,1.48c7.2,0,14.5,1.15,20.93,4.9,8.16,4.8,12.86,13.25,12.86,24.57,0,7.49-2.3,14.3-8.93,18.24Zm-10.37,8.45c0-4.61-5.76-4.9-8.54-4.9-.19,1.82-.29,3.65-.29,5.57,0,1.54,0,2.98.1,4.42.58.1,1.25.19,2.21.19,2.21,0,6.53-1.44,6.53-5.28Zm-5.38-23.52c-.86,0-1.82.1-2.69.48-.38,4.7-.48,9.5-.48,14.4.38.1.67.1,1.25.1,3.74,0,8.35-2.02,8.45-7.3,0-4.22-2.11-7.68-6.53-7.68Z"/>
      <path class="cls-1" d="m113.7,6.38c0,8.74-1.25,29.18-1.25,39.17,0,14.69-4.51,24.77-24.96,24.77-18.05,0-25.44-8.16-25.44-24.67,0-13.44-.38-30.62-.38-37.25,0-2.21.48-2.98,2.21-3.26,5.18-.86,9.02-.96,12.67-.96,3.07,0,6.14,0,10.94.1,3.36.1,4.32.19,4.32,3.36,0,13.92-.58,29.09-.58,43,0,2.11.58,4.32,3.36,4.32,3.74,0,3.84-4.13,3.84-7.2,0-12.96-.38-26.69-.38-41.28,0-2.5.86-2.78,6.24-2.78,7.3,0,8.74.38,9.22,1.34.19.48.19.86.19,1.34Z"/>
      <path class="cls-1" d="m173.51,6.18c0,.38,0,.77-.19,1.06-4.9,10.56-10.17,20.64-15.93,30.53.38,4.9.48,9.98.48,14.88,0,5.47-.1,10.85-.48,16.22,0,.58-.29.86-.86.86-3.84.29-7.49.38-11.33.38s-7.58-.1-11.33-.38c-.58-.1-.86-.29-.86-.86.19-5.38.38-10.75.38-16.13,0-4.9-.1-10.08-.38-14.97-6.05-9.6-12.19-19.39-15.93-30.14-.1-.48-.19-.86-.19-1.25,0-.86.38-1.44,1.15-1.54,4.03-.38,14.59-.96,21.02-.96.77,0,1.63.1,1.92.48,1.54,5.76,3.84,11.13,6.14,16.32,2.11-4.99,4.13-10.08,6.05-15.65.29-.96,1.15-1.25,5.95-1.25,3.17,0,10.75.29,13.63,1.15.58.19.77.67.77,1.25Z"/>
      <path class="cls-1" d="m214.31,26.53c0,.48-.38.77-1.15.77-.48,0-.96-.19-2.02-.19-5.18,0-7.2,2.4-7.2,5.47,0,1.34.19,2.59,1.63,4.42,3.65,4.7,6.05,9.31,6.05,14.3,0,13.34-11.33,18.81-26.78,18.81-2.3,0-3.17-.1-3.55-1.44-.58-2.3-1.15-5.38-1.15-8.45,0-1.06,1.92-.58,4.22-.86,4.7-.48,7.68-2.11,7.68-5.18s-1.73-5.09-6.53-8.74c-7.58-6.05-11.52-12.67-11.52-21.5,0-12.86,8.64-22.94,32.16-22.94,2.88,0,4.9.19,5.09,1.25,1.92,8.06,3.07,18.81,3.07,24.29Z"/>
      <path class="cls-1" d="m264.42,32.77c-1.25,0-5.57-.58-15.65-.58-.19,2.11-.19,4.8-.19,6.91,5.09,0,11.04-.77,13.92-.77,2.11,0,2.78.48,2.78,1.34-.48,2.88-1.25,5.38-2.21,8.25-.29.67-3.36,1.06-8.74,1.06-1.82,0-3.74,0-5.95-.1-.29,1.73-.38,4.9-.38,7.39,2.4.19,4.99.29,7.39.29,2.69,0,5.47-.29,8.16-.29.67,0,.77.58.77,1.34,0,4.42-.1,7.39-.48,10.66-.19.96-3.94,1.92-20.06,1.92-14.69,0-17.85,0-18.24-2.78-2.21-14.59-4.13-56.35-4.13-59.9,0-2.21,5.95-3.46,31.49-3.46h13.82c.58,0,.77.19.77.77,0,14.01-1.73,27.93-3.07,27.93Z"/>
      <path class="cls-1" d="m316.55,68.29c-.1.86-6.43,1.92-19.97,1.92-7.01,0-17.85,0-17.95-1.06-2.5-16.7-4.42-60.76-4.42-62.78s22.37-3.07,28.13-3.07c.58,0,.86.19.86.77-.48,13.25-.67,25.73-.67,37.82,0,4.61,0,9.31.1,13.92,1.15.1,2.4.1,3.65.1,6.05,0,8.83-.58,10.27-.58.58,0,.86.29.86.86-.1,4.42-.38,8.54-.86,12.09Z"/>
      <path class="cls-1" d="m364.74,32.68c-4.13,0-8.54-.48-13.73-.58-.29,2.02-.29,4.13-.29,6.14,10.56,0,14.88.38,14.88,1.34-.19,3.55-.86,6.62-2.21,9.79-.19.58-2.4.96-5.76.96-2.11,0-4.51-.1-7.2-.48-.1,1.44-.19,2.98-.19,4.51,0,4.61.38,9.41.58,13.54.1,2.02-12.29,2.02-18.05,2.02-3.55,0-6.53,0-6.62-.77-2.3-16.42-4.32-60.67-4.32-62.78.19-1.73,14.11-2.3,31.49-2.3h13.82c.48,0,.77.29.77.86-.86,17.28-1.54,27.74-3.17,27.74Z"/>
    </g>
  </g>
</svg>