<?xml version="1.0" encoding="UTF-8"?>
<svg id="_레이어_2" data-name="레이어 2" xmlns="http://www.w3.org/2000/svg" xmlns:xlink="http://www.w3.org/1999/xlink" viewBox="0 0 933.39 213.7">
  <defs>
    <style>
      .cls-1 {
        fill: #fff;
      }

      .cls-2 {
        fill: #37ffdb;
      }

      .cls-3 {
        fill: #37ff7b;
      }

      .cls-4 {
        filter: url(#drop-shadow-1);
      }
    </style>
    <filter id="drop-shadow-1" filterUnits="userSpaceOnUse">
      <feOffset dx="0" dy="2.83"/>
      <feGaussianBlur result="blur" stdDeviation="5"/>
      <feFlood flood-color="#000" flood-opacity=".4"/>
      <feComposite in2="blur" operator="in"/>
      <feComposite in="SourceGraphic"/>
    </filter>
  </defs>
  <g id="_레이어_1-2" data-name="레이어 1">
    <g id="_새_심볼" data-name="새 심볼">
      <g class="cls-4">
        <path class="cls-3" d="m47.5,49.7c4.6,1.5,8.4,4.7,8.4,10.5,0,11.5-13.2,11.8-21.1,11.9-5.4.1-10.5.3-16,.3-3.2,0-6.4-.1-10-.3-3.9-.1-4.8-2.2-4.9-5.7C3.5,50,1.5,23.4,0,8.7,0,5.1.6,3.6,1.3,3.1,4.3.8,10.7,0,21.6,0c7.5,0,15.1,1.2,21.8,5.1,8.5,5,13.4,13.8,13.4,25.6,0,7.8-2.4,14.9-9.3,19Zm-10.8,8.8c0-4.8-6-5.1-8.9-5.1-.2,1.9-.3,3.8-.3,5.8,0,1.6,0,3.1.1,4.6.6.1,1.3.2,2.3.2,2.3,0,6.8-1.5,6.8-5.5Zm-5.6-24.5c-.9,0-1.9.1-2.8.5-.4,4.9-.5,9.9-.5,15,.4.1.7.1,1.3.1,3.9,0,8.7-2.1,8.8-7.6,0-4.4-2.2-8-6.8-8Z"/>
        <path class="cls-3" d="m117.4,5.1c0,9.1-1.3,30.4-1.3,40.8,0,15.3-4.7,25.8-26,25.8-18.8,0-26.5-8.5-26.5-25.7,0-14-.4-31.9-.4-38.8,0-2.3.5-3.1,2.3-3.4,5.4-.9,9.4-1,13.2-1,3.2,0,6.4,0,11.4.1,3.5.1,4.5.2,4.5,3.5,0,14.5-.6,30.3-.6,44.8,0,2.2.6,4.5,3.5,4.5,3.9,0,4-4.3,4-7.5,0-13.5-.4-27.8-.4-43,0-2.6.9-2.9,6.5-2.9,7.6,0,9.1.4,9.6,1.4.2.5.2.9.2,1.4Z"/>
        <path class="cls-3" d="m179.7,4.9c0,.4,0,.8-.2,1.1-5.1,11-10.6,21.5-16.6,31.8.4,5.1.5,10.4.5,15.5,0,5.7-.1,11.3-.5,16.9,0,.6-.3.9-.9.9-4,.3-7.8.4-11.8.4s-7.9-.1-11.8-.4c-.6-.1-.9-.3-.9-.9.2-5.6.4-11.2.4-16.8,0-5.1-.1-10.5-.4-15.6-6.3-10-12.7-20.2-16.6-31.4-.1-.5-.2-.9-.2-1.3,0-.9.4-1.5,1.2-1.6,4.2-.4,15.2-1,21.9-1,.8,0,1.7.1,2,.5,1.6,6,4,11.6,6.4,17,2.2-5.2,4.3-10.5,6.3-16.3.3-1,1.2-1.3,6.2-1.3,3.3,0,11.2.3,14.2,1.2.6.2.8.7.8,1.3Z"/>
        <path class="cls-1" d="m240,61.2v8.3c0,1.7-6,1.8-11.3,1.8-8.9,0-11.1,0-13.4-.2-1.8-.2-6.2-49.6-6.2-66.1,0-2.8,11.4-4.9,24.1-4.9,23.5,0,38.1,14.3,38.1,34.4,0,18.1-14.2,25.5-31.3,26.7Zm2.8-27.1c-1,0-1.9.1-2.8.4v16.3c6.7,0,11-4,11-9.3s-4.2-7.4-8.2-7.4Z"/>
        <path class="cls-1" d="m323.5,53.4c3.6,3.8,7.8,8.8,11.4,14.5.2.4.4.7.4,1.1,0,.3-.2.7-.8.8-5.2,2.4-9.7,4.1-15.6,5.6-.3.1-.9.2-1.3.2-.6,0-1.1-.2-1.6-1-2.2-4.1-5.5-8.1-9.8-11.7v6.6c0,1.7-6,1.8-11.3,1.8-6.4,0-9.5,0-12.5-.2-2.8-.3-3.2-11.8-6.1-50.5-.4-5.1-1.1-13.3-1.1-15.6,0-2.7,10.5-4.5,22.6-4.5,24.8,0,39.8,13.6,39.8,29,0,12.4-5.4,20.5-14.1,23.9Zm-14.6-19.2c-.9,0-1.9.1-2.7.3v16.3c6.7-.5,10.9-4.3,10.9-10.1,0-4.4-3.9-6.5-8.2-6.5Z"/>
        <path class="cls-1" d="m402.8,33.4c0,19.4-9.9,38.4-29.3,38.4-18,0-29.9-14.7-29.9-37.7,0-19.4,11.3-33.7,30.1-33.7s29.1,15,29.1,33Zm-23.3,8.8c0-6.8-1.9-9.2-6.1-9.2-5.3,0-6.9,2.5-6.9,9.2,0,7.4,2.8,12.8,6.5,12.8,3.9,0,6.5-5.5,6.5-12.8Z"/>
        <path class="cls-1" d="m464.4,34.8c0,26.3-19,37.5-38.4,37.5-4.7,0-13.6-1.8-14.3-4.2-.9-14.4-1.6-28.9-1.6-44.3,0-6.4,0-13.2.4-19.6.1-1.8.7-2.4,1.8-2.6,2.4-.4,6.4-.6,13.8-.6,23.5,0,38.3,13.6,38.3,33.8Zm-30.6,1c-.4,5.2-.5,10.2-.5,15,0,2.7,0,5.4.1,8,4,0,11-4.7,11-12,0-6.4-3.7-10.7-10.6-11Z"/>
        <path class="cls-1" d="m525.1,5.1c0,9.1-1.3,30.4-1.3,40.8,0,15.3-4.7,25.8-26,25.8-18.8,0-26.5-8.5-26.5-25.7,0-14-.4-31.9-.4-38.8,0-2.3.5-3.1,2.3-3.4,5.4-.9,9.4-1,13.2-1,3.2,0,6.4,0,11.4.1,3.5.1,4.5.2,4.5,3.5,0,14.5-.6,30.3-.6,44.8,0,2.2.6,4.5,3.5,4.5,3.9,0,4-4.3,4-7.5,0-13.5-.4-27.8-.4-43,0-2.6.9-2.9,6.5-2.9,7.6,0,9.1.4,9.6,1.4.2.5.2.9.2,1.4Z"/>
        <path class="cls-1" d="m584.4,30.3c-1.1,0-3-.9-8.4-.9-9.5,0-15.1,6.3-15.1,14.5s5.5,14.7,14.5,14.7c4.7,0,5.7-1.2,6.7-1.2.6,0,1.2.6,1.2,1.7,0,.7,0,3.8-.4,8.3-.1,2.2-7.3,4.2-14.8,4.2-18.4,0-36.5-10-36.5-35.8,0-19.7,14.5-35.5,35.4-35.5,9.1,0,12.4.7,15.3,1.8,2,.8,3,14.7,3,27.4,0,.6-.2.8-.9.8Z"/>
        <path class="cls-1" d="m644.2,15.6c0,5.2-.2,10.4-.3,15.6,0,.6-.3.9-.9.9-4,0-8.7,0-12.7.1-.4,9-1.8,24.8-3.3,38,0,1.1-2.6,1.4-7.3,1.4s-8.5-.3-11.9-.5c-.6-.1-.9-.5-1-2.5-.4-12.8-1.4-25.4-2.5-36.6-4.3-.2-8.6-.2-12.9-.2-.6,0-.9-.3-.9-.9-.2-5.1-.3-10.3-.3-15.4,0-4.6.1-8.5.3-13.1,0-.6.3-.9.9-.9,5.8-.2,11.8-.2,17.7-.2,11.4,0,22.7.3,33.9.9.6,0,.9.3.9.9.2,4.5.3,8.1.3,12.5Z"/>
        <path class="cls-1" d="m94.9,196.5c-4.8,8.7-13.5,13-23.7,13-11.3,0-17.6-2.7-21-8.2-.5-.6-1-1.5-1-2.5,0-1.2,7-7.9,8.8-7.9.3,0,.5,0,.6.3,1.7,3.4,3.3,4.6,6,4.6,4.3,0,7.2-5.3,7.2-15,0-21.1-1-29.5-1-40,0-1.4.3-2.1,1.9-2.1,23.5,0,28.3.4,28.3,1.7,0,32.7-2.5,49.4-6.1,56.1Z"/>
        <path class="cls-1" d="m161.6,141.1c0,9.1-1.3,30.4-1.3,40.8,0,15.3-4.7,25.8-26,25.8-18.8,0-26.5-8.5-26.5-25.7,0-14-.4-31.9-.4-38.8,0-2.3.5-3.1,2.3-3.4,5.4-.9,9.4-1,13.2-1,3.2,0,6.4,0,11.4.1,3.5.1,4.5.2,4.5,3.5,0,14.5-.6,30.3-.6,44.8,0,2.2.6,4.5,3.5,4.5,3.9,0,4-4.3,4-7.5,0-13.5-.4-27.8-.4-43,0-2.6.9-2.9,6.5-2.9,7.6,0,9.1.4,9.6,1.4.2.5.2.9.2,1.4Z"/>
        <path class="cls-1" d="m209.6,162.1c0,.5-.4.8-1.2.8-.5,0-1-.2-2.1-.2-5.4,0-7.5,2.5-7.5,5.7,0,1.4.2,2.7,1.7,4.6,3.8,4.9,6.3,9.7,6.3,14.9,0,13.9-11.8,19.6-27.9,19.6-2.4,0-3.3-.1-3.7-1.5-.6-2.4-1.2-5.6-1.2-8.8,0-1.1,2-.6,4.4-.9,4.9-.5,8-2.2,8-5.4s-1.8-5.3-6.8-9.1c-7.9-6.3-12-13.2-12-22.4,0-13.4,9-23.9,33.5-23.9,3,0,5.1.2,5.3,1.3,2,8.4,3.2,19.6,3.2,25.3Z"/>
        <path class="cls-1" d="m268.9,151.6c0,5.2-.2,10.4-.3,15.6,0,.6-.3.9-.9.9-4,0-8.7,0-12.7.1-.4,9-1.8,24.8-3.3,38,0,1.1-2.6,1.4-7.3,1.4s-8.5-.3-11.9-.5c-.6-.1-.9-.5-1-2.5-.4-12.8-1.4-25.4-2.5-36.6-4.3-.2-8.6-.2-12.9-.2-.6,0-.9-.3-.9-.9-.2-5.1-.3-10.3-.3-15.4,0-4.6.1-8.5.3-13.1,0-.6.3-.9.9-.9,5.8-.2,11.8-.2,17.7-.2,11.4,0,22.7.3,33.9.9.6,0,.9.3.9.9.2,4.5.3,8.1.3,12.5Z"/>
        <path class="cls-1" d="m346.8,185.7c4.6,1.5,8.4,4.7,8.4,10.5,0,11.5-13.2,11.8-21.1,11.9-5.4.1-10.5.3-16,.3-3.2,0-6.4-.1-10-.3-3.9-.1-4.8-2.2-4.9-5.7-.4-16.4-2.4-43-3.9-57.7,0-3.6.6-5.1,1.3-5.6,3-2.3,9.4-3.1,20.3-3.1,7.5,0,15.1,1.2,21.8,5.1,8.5,5,13.4,13.8,13.4,25.6,0,7.8-2.4,14.9-9.3,19Zm-10.8,8.8c0-4.8-6-5.1-8.9-5.1-.2,1.9-.3,3.8-.3,5.8,0,1.6,0,3.1.1,4.6.6.1,1.3.2,2.3.2,2.3,0,6.8-1.5,6.8-5.5Zm-5.6-24.5c-.9,0-1.9.1-2.8.5-.4,4.9-.5,9.9-.5,15,.4.1.7.1,1.3.1,3.9,0,8.7-2.1,8.8-7.6,0-4.4-2.2-8-6.8-8Z"/>
        <path class="cls-1" d="m414.9,140.9c0,.4,0,.8-.2,1.1-5.1,11-10.6,21.5-16.6,31.8.4,5.1.5,10.4.5,15.5,0,5.7-.1,11.3-.5,16.9,0,.6-.3.9-.9.9-4,.3-7.8.4-11.8.4s-7.9-.1-11.8-.4c-.6-.1-.9-.3-.9-.9.2-5.6.4-11.2.4-16.8,0-5.1-.1-10.5-.4-15.6-6.3-10-12.7-20.2-16.6-31.4-.1-.5-.2-.9-.2-1.3,0-.9.4-1.5,1.2-1.6,4.2-.4,15.2-1,21.9-1,.8,0,1.7.1,2,.5,1.6,6,4,11.6,6.4,17,2.2-5.2,4.3-10.5,6.3-16.3.3-1,1.2-1.3,6.2-1.3,3.3,0,11.2.3,14.2,1.2.6.2.8.7.8,1.3Z"/>
        <path class="cls-1" d="m500.5,140.9c0,.4,0,.8-.2,1.1-5.1,11-10.6,21.5-16.6,31.8.4,5.1.5,10.4.5,15.5,0,5.7-.1,11.3-.5,16.9,0,.6-.3.9-.9.9-4,.3-7.8.4-11.8.4s-7.9-.1-11.8-.4c-.6-.1-.9-.3-.9-.9.2-5.6.4-11.2.4-16.8,0-5.1-.1-10.5-.4-15.6-6.3-10-12.7-20.2-16.6-31.4-.1-.5-.2-.9-.2-1.3,0-.9.4-1.5,1.2-1.6,4.2-.4,15.2-1,21.9-1,.8,0,1.7.1,2,.5,1.6,6,4,11.6,6.4,17,2.2-5.2,4.3-10.5,6.3-16.3.3-1,1.2-1.3,6.2-1.3,3.3,0,11.2.3,14.2,1.2.6.2.8.7.8,1.3Z"/>
        <path class="cls-1" d="m559,169.4c0,19.4-9.9,38.4-29.3,38.4-18,0-29.9-14.7-29.9-37.7,0-19.4,11.3-33.7,30.1-33.7s29.1,15,29.1,33Zm-23.3,8.8c0-6.8-1.9-9.2-6.1-9.2-5.3,0-6.9,2.5-6.9,9.2,0,7.4,2.8,12.8,6.5,12.8,3.9,0,6.5-5.5,6.5-12.8Z"/>
        <path class="cls-1" d="m619.9,141.1c0,9.1-1.3,30.4-1.3,40.8,0,15.3-4.7,25.8-26,25.8-18.8,0-26.5-8.5-26.5-25.7,0-14-.4-31.9-.4-38.8,0-2.3.5-3.1,2.3-3.4,5.4-.9,9.4-1,13.2-1,3.2,0,6.4,0,11.4.1,3.5.1,4.5.2,4.5,3.5,0,14.5-.6,30.3-.6,44.8,0,2.2.6,4.5,3.5,4.5,3.9,0,4-4.3,4-7.5,0-13.5-.4-27.8-.4-43,0-2.6.9-2.9,6.5-2.9,7.6,0,9.1.4,9.6,1.4.2.5.2.9.2,1.4Z"/>
        <path class="cls-1" d="m675.1,189.4c3.6,3.8,7.8,8.8,11.4,14.5.2.4.4.7.4,1.1,0,.3-.2.7-.8.8-5.2,2.4-9.7,4.1-15.6,5.6-.3.1-.9.2-1.3.2-.6,0-1.1-.2-1.6-1-2.2-4.1-5.5-8.1-9.8-11.7v6.6c0,1.7-6,1.8-11.3,1.8-6.4,0-9.5,0-12.5-.2-2.8-.3-3.2-11.8-6.1-50.5-.4-5.1-1.1-13.3-1.1-15.6,0-2.7,10.5-4.5,22.6-4.5,24.8,0,39.8,13.6,39.8,29,0,12.4-5.4,20.5-14.1,23.9Zm-14.6-19.2c-.9,0-1.9.1-2.7.3v16.3c6.7-.5,10.9-4.3,10.9-10.1,0-4.4-3.9-6.5-8.2-6.5Z"/>
        <path class="cls-2" d="m737.8,162.1c0,.5-.4.8-1.2.8-.5,0-1-.2-2.1-.2-5.4,0-7.5,2.5-7.5,5.7,0,1.4.2,2.7,1.7,4.6,3.8,4.9,6.3,9.7,6.3,14.9,0,13.9-11.8,19.6-27.9,19.6-2.4,0-3.3-.1-3.7-1.5-.6-2.4-1.2-5.6-1.2-8.8,0-1.1,2-.6,4.4-.9,4.9-.5,8-2.2,8-5.4s-1.8-5.3-6.8-9.1c-7.9-6.3-12-13.2-12-22.4,0-13.4,9-23.9,33.5-23.9,3,0,5.1.2,5.3,1.3,2,8.4,3.2,19.6,3.2,25.3Z"/>
        <path class="cls-2" d="m790,168.6c-1.3,0-5.8-.6-16.3-.6-.2,2.2-.2,5-.2,7.2,5.3,0,11.5-.8,14.5-.8,2.2,0,2.9.5,2.9,1.4-.5,3-1.3,5.6-2.3,8.6-.3.7-3.5,1.1-9.1,1.1-1.9,0-3.9,0-6.2-.1-.3,1.8-.4,5.1-.4,7.7,2.5.2,5.2.3,7.7.3,2.8,0,5.7-.3,8.5-.3.7,0,.8.6.8,1.4,0,4.6-.1,7.7-.5,11.1-.2,1-4.1,2-20.9,2-15.3,0-18.6,0-19-2.9-2.3-15.2-4.3-58.7-4.3-62.4,0-2.3,6.2-3.6,32.8-3.6h14.4c.6,0,.8.2.8.8,0,14.6-1.8,29.1-3.2,29.1Z"/>
        <path class="cls-2" d="m844.3,205.6c-.1.9-6.7,2-20.8,2-7.3,0-18.6,0-18.7-1.1-2.6-17.4-4.6-63.3-4.6-65.4s23.3-3.2,29.3-3.2c.6,0,.9.2.9.8-.5,13.8-.7,26.8-.7,39.4,0,4.8,0,9.7.1,14.5,1.2.1,2.5.1,3.8.1,6.3,0,9.2-.6,10.7-.6.6,0,.9.3.9.9-.1,4.6-.4,8.9-.9,12.6Z"/>
        <path class="cls-2" d="m894.5,168.5c-4.3,0-8.9-.5-14.3-.6-.3,2.1-.3,4.3-.3,6.4,11,0,15.5.4,15.5,1.4-.2,3.7-.9,6.9-2.3,10.2-.2.6-2.5,1-6,1-2.2,0-4.7-.1-7.5-.5-.1,1.5-.2,3.1-.2,4.7,0,4.8.4,9.8.6,14.1.1,2.1-12.8,2.1-18.8,2.1-3.7,0-6.8,0-6.9-.8-2.4-17.1-4.5-63.2-4.5-65.4.2-1.8,14.7-2.4,32.8-2.4h14.4c.5,0,.8.3.8.9-.9,18-1.6,28.9-3.3,28.9Z"/>
        <path class="cls-2" d="m931.19,187.1c0,.6-.3.8-.9.8-4.2.2-8.2.2-12.4.2s-8.2,0-12.3-.2c-.6,0-.9-.2-.9-.8,0-19.1-1.6-27.9-1.6-47.2,0-.6.3-.8.9-.9,4.9-.3,10-.4,14.9-.4,4.6,0,9.1.1,13.6.4.6,0,.9.3.9.8-1.7,23-2.2,36.9-2.2,47.3Zm-.9,16.7c0,.8-1.6,1.9-2.2,2.2-5.2,3-10.4,5.3-15.9,7.4-.5.2-.9.3-1.1.3-2.1,0-7.1-10.9-7.1-14.5,0-.7.4-1.1,1.5-1.6,4.9-2.2,10-4.6,14.5-7.5.5-.3,1.6-.8,2.1-.8,2.4,0,8.2,13.1,8.2,14.5Z"/>
      </g>
    </g>
  </g>
</svg>